<svg width="44" height="54" viewBox="0 0 44 54" fill="none" xmlns="http://www.w3.org/2000/svg">
<path d="M7.93445 2.77902C7.38874 3.46115 7.23008 8.71257 7.21446 11.6704C7.21279 11.9857 7.32046 12.2902 7.51746 12.5365C7.78102 12.8659 8.17977 13.0593 8.60158 13.0504C12.1985 12.9748 16.8152 12.3364 21.459 12.3364C28.2858 12.3364 34.8419 13.0577 35.3443 13.0577C36.4262 13.0577 36.7869 12.1561 36.9672 12.1561C37.1476 12.1561 36.7869 4.22165 36.0656 2.77902C35.4885 1.62491 33.4208 0.7353 32.459 0.434757C22 -0.466889 12.659 0.290494 11.3607 0.434757C9.73772 0.615085 8.65576 1.87738 7.93445 2.77902Z" fill="#EE2737"/>
<path d="M6.87822 16.6642H36.8126L43.8454 28.0249H0L6.87822 16.6642Z" fill="#EE2737"/>
<path d="M0 28.0249H44V37.9921C44 46.8287 36.8366 53.9921 28 53.9921H16C7.16344 53.9921 0 46.8287 0 37.9921V28.0249Z" fill="#EE2737"/>
<path d="M12.375 36.375H20.625V44.625C20.625 45.3833 21.2417 46 22 46C22.7583 46 23.375 45.3833 23.375 44.625V36.375H31.625C32.3833 36.375 33 35.7583 33 35C33 34.2417 32.3833 33.625 31.625 33.625H23.375V25.375C23.375 24.6167 22.7583 24 22 24C21.2417 24 20.625 24.6167 20.625 25.375V33.625H12.375C11.6167 33.625 11 34.2417 11 35C11 35.7583 11.6167 36.375 12.375 36.375Z" fill="#FFE1DF"/>
</svg>
